<?xml version="1.0" encoding="UTF-8" standalone="no"?>
<svg width="100%" height="100%" viewBox="0 0 1000 1000" version="1.1" xmlns="http://www.w3.org/2000/svg" xml:space="preserve" style="fill-rule:evenodd;clip-rule:evenodd;stroke-linejoin:round;stroke-miterlimit:2;">
    <g transform="matrix(1,0,0,1,-32.981,29.1945)">
        <g transform="matrix(0.799749,-0.799749,0.799749,0.799749,-317.993,296.79)">
            <path d="M250.88,563.632C218.524,563.632 153.813,500.521 153.813,468.966C153.813,437.41 218.524,374.299 250.88,374.299C283.236,374.299 347.947,437.41 347.947,468.966C347.947,500.521 283.236,563.632 250.88,563.632ZM250.88,551.099C278.658,551.099 334.08,496.344 334.08,468.966C334.08,441.588 278.658,386.832 250.88,386.832C223.102,386.832 167.413,441.588 167.413,468.966C167.413,496.344 223.102,551.099 250.88,551.099Z" style="fill-rule:nonzero;"/>
        </g>
        <g transform="matrix(1,0,0,0.940056,-39.1428,32.6883)">
            <path d="M770.868,497.979C767.323,533.285 766.213,567.634 766.213,567.634L751.546,567.634C751.546,567.634 757.407,418.818 783.464,387.299C809.522,355.78 880.677,355.786 907.193,387.299C933.709,418.812 943.257,567.598 943.257,567.598L928.59,567.598C928.59,567.598 926.521,532.187 921.824,496.125C894.406,522.027 797.401,523.267 770.868,497.979ZM918.896,475.532C913.915,443.447 906.849,411.956 897.326,399.283C876.449,371.498 813.636,371.271 793.064,399.283C783.919,411.735 777.735,442.351 773.631,473.852C775.633,478.555 777.972,482.459 780.649,485.307C802.545,508.599 890.872,507.805 913.088,484.173C915.225,481.899 917.161,478.977 918.896,475.532Z"/>
        </g>
        <g transform="matrix(1.0228,0,0,1.0228,124.85,-10.3313)">
            <path d="M401.935,563.775L401.935,422.069C401.935,422.069 402.268,407.209 404.917,399.485C408.265,389.727 413.328,385.525 423.77,380.505C431.214,376.927 470.105,377.108 470.105,377.108L490.444,377.108C513.91,377.108 543.738,375.742 554.81,393.285C565.881,410.829 567.587,463.495 557.626,482.37C548.717,499.253 535.415,503.8 490.444,502.708L415.535,502.708L415.535,563.775L401.935,563.775ZM553.11,563.775L504.577,496.041L520.044,496.041L568.577,563.775L553.11,563.775ZM415.723,422.459L415.535,490.708L490.444,490.708C510.533,490.708 535.148,492.064 544.089,477.375C553.03,462.686 553.03,417.241 544.089,402.575C535.148,387.908 510.533,389.375 490.444,389.375L470.322,389.375C470.322,389.375 436.989,389.302 431.556,391.382C422.437,394.873 419.427,399.303 417.106,407.668C415.682,412.803 415.723,422.459 415.723,422.459Z" style="fill-rule:nonzero;"/>
        </g>
        <g transform="matrix(1.0228,0,0,1.0228,-51.573,-10.3313)">
            <path d="M401.935,563.775L401.935,422.069C401.935,422.069 402.268,407.209 404.917,399.485C408.265,389.727 413.328,385.525 423.77,380.505C431.214,376.927 470.105,377.108 470.105,377.108L490.444,377.108C513.91,377.108 543.738,375.742 554.81,393.285C565.881,410.829 567.587,463.495 557.626,482.37C548.717,499.253 535.415,503.8 490.444,502.708L415.535,502.708L415.535,563.775L401.935,563.775ZM553.11,563.775L504.577,496.041L520.044,496.041L568.577,563.775L553.11,563.775ZM415.723,422.459L415.535,490.708L490.444,490.708C510.533,490.708 535.148,492.064 544.089,477.375C553.03,462.686 553.03,417.241 544.089,402.575C535.148,387.908 510.533,389.375 490.444,389.375L470.322,389.375C470.322,389.375 436.989,389.302 431.556,391.382C422.437,394.873 419.427,399.303 417.106,407.668C415.682,412.803 415.723,422.459 415.723,422.459Z" style="fill-rule:nonzero;"/>
        </g>
    </g>
</svg>
